<?xml version="1.0" encoding="UTF-8"?>
<svg width="21px" height="32px" viewBox="0 0 21 32" version="1.1" xmlns="http://www.w3.org/2000/svg" xmlns:xlink="http://www.w3.org/1999/xlink">
    <!-- Generator: Sketch 47.1 (45422) - http://www.bohemiancoding.com/sketch -->
    <title>pin-green</title>
    <desc>Created with Sketch.</desc>
    <defs></defs>
    <g id="Page-1" stroke="none" stroke-width="1" fill="none" fill-rule="evenodd">
        <g id="pin-green" transform="translate(1.000000, 1.000000)" stroke="#000000" stroke-width="2" fill="#357D22" fill-rule="nonzero">
            <path d="M9.52152729,0 L9.47833062,0 C4.25188836,0 0,4.21345466 0,9.39241344 C0,12.7872074 1.55962726,17.2675156 4.63554302,22.7091022 C6.91601478,26.7433163 9.22845775,29.8330845 9.25161913,29.8637913 C9.31598785,29.9495028 9.4174432,30 9.52493755,30 C9.52799258,30 9.53111866,30 9.53417368,29.9998591 C9.6450783,29.9968307 9.74745726,29.9405584 9.8089841,29.8489309 C9.83179024,29.8147027 12.1277503,26.3777221 14.3927337,22.1739161 C17.4498931,16.4999859 19,12.1995521 19,9.39241344 C18.9997869,4.21338423 14.7478275,0 9.52152729,0 Z M13.8966114,9.62193988 C13.8966114,12.0252416 11.9242712,13.9803364 9.49985791,13.9803364 C7.07551565,13.9803364 5.10317543,12.0251711 5.10317543,9.62193988 C5.10317543,7.21870862 7.07551565,5.2635434 9.49985791,5.2635434 C11.9242712,5.2635434 13.8966114,7.21870862 13.8966114,9.62193988 Z" id="Shape"></path>
        </g>
    </g>
</svg>