<?xml version="1.0" encoding="UTF-8"?>
<svg width="21px" height="32px" viewBox="0 0 21 32" version="1.1" xmlns="http://www.w3.org/2000/svg" xmlns:xlink="http://www.w3.org/1999/xlink">
    <!-- Generator: Sketch 47.1 (45422) - http://www.bohemiancoding.com/sketch -->
    <title>pin-red</title>
    <desc>Created with Sketch.</desc>
    <defs></defs>
    <g id="Page-1" stroke="none" stroke-width="1" fill="none" fill-rule="evenodd">
        <g id="pin-red" transform="translate(1.000000, 1.000000)" stroke="#000000" stroke-width="2" fill="#FF0000" fill-rule="nonzero">
            <path d="M9.52020522,0 L9.47710075,0 C4.26181343,0 0.019,4.21309859 0.019,9.39161972 C0.019,12.7861268 1.57529851,17.2660563 4.64464925,22.7071831 C6.92025373,26.7410563 9.22776119,29.8305634 9.25087313,29.8612676 C9.31510448,29.9469718 9.41634328,29.9974648 9.52360821,29.9974648 C9.52665672,29.9974648 9.52977612,29.9974648 9.53282463,29.9973239 C9.64349254,29.9942958 9.74565299,29.9380282 9.80704851,29.8464085 C9.82980597,29.8121831 12.1208657,26.375493 14.3810149,22.1720423 C17.4316493,16.4985915 18.9784478,12.1985211 18.9784478,9.39161972 C18.9782351,4.21302817 14.7353507,0 9.52020522,0 Z M13.8859515,9.62112676 C13.8859515,12.0242254 11.9178209,13.9791549 9.49858209,13.9791549 C7.07941418,13.9791549 5.11128358,12.0241549 5.11128358,9.62112676 C5.11128358,7.21809859 7.07941418,5.26309859 9.49858209,5.26309859 C11.9178209,5.26309859 13.8859515,7.21809859 13.8859515,9.62112676 Z" id="Shape"></path>
        </g>
    </g>
</svg>